<?xml version="1.0" encoding="utf-8"?><!-- Uploaded to: SVG Repo, www.svgrepo.com, Generator: SVG Repo Mixer Tools -->
<svg width="800px" height="800px" viewBox="0 0 64 64" xmlns="http://www.w3.org/2000/svg" xmlns:xlink="http://www.w3.org/1999/xlink" aria-hidden="true" role="img" class="iconify iconify--emojione-monotone" preserveAspectRatio="xMidYMid meet"><path d="M37.656 2c-47.541 0-47.541 60-.001 60h.001C51.101 62 62 48.568 62 32C62 15.43 51.101 2 37.656 2m0 58.258c-12.665 0-22.931-12.65-22.931-28.258c0-15.606 10.266-28.256 22.931-28.256S60.586 16.394 60.586 32c0 15.607-10.265 28.258-22.93 28.258" fill="#000000"></path><path d="M37.656 7.295c-11.073 0-20.048 11.06-20.048 24.705c0 13.645 8.975 24.704 20.048 24.704c11.071 0 20.047-11.059 20.047-24.704c0-13.645-8.975-24.705-20.047-24.705m0 47.908c-10.228 0-18.548-10.408-18.548-23.204c0-12.795 8.32-23.205 18.548-23.205c10.227 0 18.547 10.41 18.547 23.205c0 12.796-8.32 23.204-18.547 23.204" fill="#000000"></path><path d="M49.188 23.793l-7.685 3.468l2.814-9.471l-5.249 7.735l-1.411-9.936l-1.41 9.936l-5.25-7.735l2.813 9.471l-7.684-3.47l6.275 6.47L24.341 32l8.061 1.741l-6.276 6.467l7.687-3.469l-2.816 9.469l5.252-7.732l1.41 9.934l1.411-9.934l5.251 7.732l-2.817-9.469l7.685 3.471l-6.279-6.47L50.972 32l-8.062-1.738l6.278-6.469M46.229 32l-3.53.762l-1.762.381l1.255 1.293l2.62 2.701l-2.899-1.311l-1.994-.9l.625 2.098l.976 3.281l-1.624-2.393l-1.453-2.139l-.364 2.561l-.421 2.961l-.42-2.961l-.363-2.561l-1.454 2.139l-1.627 2.396l.978-3.285l.623-2.096l-1.995.899l-2.902 1.311l2.621-2.701l1.255-1.293l-1.762-.381l-3.53-.762l3.53-.762l1.762-.38l-1.255-1.294l-2.619-2.7l2.897 1.31l1.993.9l-.622-2.097l-.977-3.289l1.628 2.399l1.453 2.142l.364-2.563l.42-2.962l.421 2.962l.364 2.563l1.453-2.142l1.625-2.394l-.977 3.284l-.622 2.096l1.992-.899l2.898-1.308l-2.62 2.699l-1.256 1.294l1.763.38l3.532.761" fill="#000000"></path><path d="M36.206 19.271l-1.303-1.89l-.444 2.419l1.302 1.888z" fill="#000000"></path><path d="M33.664 15.896l-1.304-1.891l-.444 2.419l1.302 1.889z" fill="#000000"></path><path d="M41.395 16.857l-1.703 1.323l-.162 2.471l1.7-1.321z" fill="#000000"></path><path d="M39.106 44.727l1.302 1.89l.446-2.418l-1.303-1.888z" fill="#000000"></path><path d="M41.648 48.105l1.303 1.887l.445-2.416l-1.302-1.89z" fill="#000000"></path><path d="M33.918 47.141l1.702-1.321l.162-2.47l-1.7 1.32z" fill="#000000"></path><path d="M46.023 29.664l1.961.546l1.534-1.603l-1.962-.549z" fill="#000000"></path><path d="M50.726 27.08l1.532-1.606l-1.962-.548l-1.534 1.604z" fill="#000000"></path><path d="M46.866 34.309l1.072 2.095l2.004.201l-1.071-2.097z" fill="#000000"></path><path d="M29.289 34.334l-1.961-.547l-1.534 1.604l1.963.548z" fill="#000000"></path><path d="M24.589 36.918l-1.534 1.607l1.964.547l1.531-1.603z" fill="#000000"></path><path d="M28.448 29.689l-1.073-2.096l-2.007-.201l1.074 2.098z" fill="#000000"></path><path d="M47.164 22.624l-1.963.552l-.819 2.262l1.962-.549z" fill="#000000"></path><path d="M48.535 18.338l-1.959.553l-.823 2.262l1.964-.549z" fill="#000000"></path><path d="M26.776 45.66l1.961-.553l.82-2.261l-1.96.549z" fill="#000000"></path><path d="M31.886 21.294l-1.837-1.011l.446 2.418l1.837 1.01z" fill="#000000"></path><path d="M28.855 22.02l-.446-2.419l-1.839-1.009l.449 2.416z" fill="#000000"></path><path d="M46.457 41.979l.445 2.419l1.838 1.008l-.447-2.416z" fill="#000000"></path></svg>