<?xml version="1.0" encoding="iso-8859-1"?>
<!-- Uploaded to: SVG Repo, www.svgrepo.com, Generator: SVG Repo Mixer Tools -->
<svg fill="#000000" height="800px" width="800px" version="1.1" id="Layer_1" xmlns="http://www.w3.org/2000/svg" xmlns:xlink="http://www.w3.org/1999/xlink" 
	 viewBox="0 0 244.861 244.861" xml:space="preserve">
<g>
	<g>
		<g>
			<path d="M223.376,187.231c22.24-24.948,27.244-52.724,14.872-82.552c-9.6-23.148-27.968-39.264-54.588-47.904
				c-2.764-0.9-5.624-1.584-8.392-2.248c-0.668-0.16-1.34-0.32-2.012-0.484c1.212-4.52,3.876-8.7,8.632-13.636l2.616-2.716
				l-3.724-0.616c-4.976-0.832-9.256-0.456-13.184,1.16c0.5-3.692,0.3-8.224-2.824-12.332c-2.424-3.196-4.348-3.46-7.616-1.076
				c-3.356,2.46-5.66,5.7-6.884,9.664c-5.024-5.648-11.588-7.192-16.476-6.004l-2.344,0.568l1.004,2.192
				c0.328,0.712,0.668,1.416,1.012,2.124c1.124,2.328,2.208,4.564,2.712,6.968c-3.804-1.04-7.448-1.6-11.436-0.712l-3.816,0.852
				l2.94,2.58c0.792,0.696,1.58,1.36,2.344,2.008c1.692,1.428,3.284,2.78,4.716,4.244c1.524,1.56,2.692,3.368,3.48,5.396
				c-0.108,0.028-0.216,0.056-0.324,0.08c-19.036,4.264-34.992,13.412-47.432,27.18c-12.608,13.96-19.52,29.572-20.676,46.576
				c-4.312-3.48-9.08-6.66-14.332-9.072c-24.448-11.228-48.564-1.804-49.584-1.404L0,118.895l1.052,1.952
				c0.612,1.148,15.364,28.208,39.636,39.364c5.452,2.504,10.884,3.968,16.048,4.748c-24.004,11.44-35.784,32.536-36.348,33.572
				l-1.064,1.948l2.056,0.836c1.168,0.476,22.812,9.148,47.536,9.148c7.36,0,14.996-0.768,22.44-2.752
				c5.056-1.348,9.684-3.184,13.94-5.304c8.388,5.284,17.312,9.132,26.664,11.42l1.144,0.068c0.584-0.004,1.18-0.016,1.784-0.044
				l0.876-0.092l0.312,0.028l0.308-0.072c0.864-0.204,1.688-0.472,2.528-0.752l0.628-0.244c0.352-0.18,0.716-0.34,1.08-0.5
				l0.536-0.244c1.424-0.652,2.864-1.308,4.336-1.856c1.904-0.712,4.088-1.088,6.5-1.048c1.192,0.016,1.944,0.552,3.412,1.664
				c2.528,1.916,5.984,4.544,14.388,4.544h0.3l0.284-0.088C171.96,214.703,209.32,203.003,223.376,187.231z M49.988,123.075
				c5.872,2.696,11.14,6.472,15.812,10.564c-0.004,4.228,0.328,8.536,1.02,12.928c0.124,0.8,0.332,1.564,0.48,2.356L6.232,120.859
				C13,118.827,31.64,114.643,49.988,123.075z M6.484,122.227l14.96,6.872l-7.268,3.96C10.708,128.711,8.104,124.815,6.484,122.227z
				 M14.9,133.951l7.82-4.26l9.968,4.58l-11.516,6.74C18.86,138.631,16.768,136.243,14.9,133.951z M22,141.835l11.944-6.992
				l11.928,5.48l-14.496,9.672C27.964,147.463,24.832,144.679,22,141.835z M42.348,156.595c-3.544-1.624-6.884-3.636-10.004-5.876
				l14.74-9.836l12.736,5.852l-16.836,10.124C42.772,156.763,42.56,156.695,42.348,156.595z M44.288,157.399l16.78-10.088
				l6.512,2.992c0.36,1.756,0.76,3.492,1.232,5.196l-8.884,5.8C54.92,160.783,49.616,159.591,44.288,157.399z M69.152,156.631
				c0.336,1.148,0.644,2.308,1.036,3.432c-0.236,0.052-0.472,0.096-0.704,0.156c-1.564,0.416-3.052,0.916-4.536,1.416
				c-1.056-0.024-2.132-0.076-3.22-0.156L69.152,156.631z M65.34,165.671c0.408,0.008,0.828,0.028,1.228,0.028
				c2.028,0,3.908-0.132,5.748-0.288c2.692,6.184,6.224,11.956,10.564,17.32l-57.536,15.312
				C29.532,191.583,42.82,173.639,65.34,165.671z M26.408,198.923l21.524-5.728l-4.18,10.444
				C36.144,202.047,30.008,200.155,26.408,198.923z M44.884,203.867l4.42-11.036l13.74-3.656l-6.052,16.568
				C52.708,205.279,48.636,204.623,44.884,203.867z M58.152,205.863l6.224-17.044l16.372-4.356l-6.552,21.836
				C68.712,206.583,63.304,206.375,58.152,205.863z M90.996,203.659c-0.228,0.064-0.432,0.156-0.664,0.216
				c-4.912,1.308-9.944,2.04-14.932,2.364l6.636-22.12l1.612-0.428c3.14,3.76,6.68,7.308,10.632,10.636L90.996,203.659z
				 M92.356,203.211l2.844-8.072c0.084,0.068,0.152,0.14,0.236,0.208c1.936,1.576,3.92,3.036,5.928,4.44
				C98.528,201.099,95.532,202.255,92.356,203.211z M169.488,211.315c-6.844-0.06-9.416-2.008-11.684-3.736
				c-1.58-1.2-3.208-2.436-5.756-2.472c-2.692-0.028-5.584,0.416-7.936,1.296c-1.56,0.58-3.088,1.272-4.604,1.964l-0.5,0.228
				c-0.424,0.192-0.852,0.384-1.336,0.596c-0.68,0.228-1.344,0.448-2.04,0.62c-0.1,0.004-0.212,0.012-0.328,0.024l-0.588,0.048
				c-0.544,0.024-1.088,0.036-1.636,0.04l0.016,1.984l-0.38-1.148l0.196-0.784c-12.54-3.068-24.304-9.024-34.96-17.704
				c-15.164-12.348-24.316-27.932-27.204-46.32c-3.592-22.868,2.752-43.5,18.856-61.328c11.88-13.148,27.136-21.884,45.36-25.968
				c0.532-0.116,1.052-0.28,1.656-0.468l2.72-0.82l-0.492-1.86c-0.916-3.444-2.62-6.464-5.076-8.968
				c-1.144-1.172-2.348-2.244-3.6-3.32c2.452,0.2,4.94,0.904,7.716,1.756l2.58,0.796l-0.008-2.7
				c-0.016-4.236-1.592-7.684-3.196-10.992c4.104,0.08,8.992,2.492,12.376,8.264l3.104,5.3l0.584-6.116
				c0.476-5.036,2.504-8.796,6.188-11.496c0.82-0.6,1.164-0.768,1.128-0.84c0.104,0.08,0.388,0.328,0.984,1.108
				c2.324,3.06,2.8,6.604,1.588,11.864l-1.384,6.176l4.1-2.728c3.176-2.104,6.648-3.08,10.396-2.992
				c-3.28,3.852-6.292,8.528-7.384,14.524l-0.328,1.816l1.784,0.46c1.32,0.34,2.632,0.656,3.936,0.968
				c2.82,0.676,5.48,1.316,8.092,2.164c25.468,8.26,43.016,23.62,52.152,45.652c11.74,28.3,6.968,54.672-14.168,78.388
				C207.704,198.843,172.996,210.191,169.488,211.315z"/>
			<path d="M155.544,61.759c-43.532,0-78.944,31.656-78.944,70.568s35.412,70.564,78.944,70.564s78.944-31.656,78.944-70.568
				S199.076,61.759,155.544,61.759z M155.544,200.055c-41.968,0-76.108-30.384-76.108-67.732c0-37.348,34.14-67.732,76.108-67.732
				s76.108,30.384,76.108,67.732C231.652,169.671,197.512,200.055,155.544,200.055z"/>
			<path d="M153.924,78.779l0.2-0.46l-0.284-0.412c-2.524-3.684-7.92-4.472-15.2-2.208c-19.512,6.052-46.716,31.312-46.704,58.704
				c0.012,26.112,24.388,42.336,31.86,46.688c9.108,5.308,18.108,8.22,24.644,8.22c2.584,0,4.788-0.456,6.456-1.404l0.2-0.152
				c4.44-4.504,1.676-10.384-2.148-18.52C145.548,153.503,133.168,127.179,153.924,78.779z M153.892,186.391
				c-5.224,2.824-17.464-0.036-29.188-6.868c-7.256-4.228-30.944-19.976-30.956-45.12c-0.012-26.564,26.448-51.084,45.424-56.972
				c6.164-1.912,10.708-1.512,12.88,1.112c-20.784,48.844-8.248,75.512-0.748,91.464
				C155.048,177.967,157.32,182.799,153.892,186.391z"/>
			<path d="M187.976,82.631c-12.728-7.408-25.216-10.14-31.092-6.804l-0.196,0.152c-4.44,4.504-1.68,10.384,2.148,18.52
				c7.396,15.728,19.772,42.056-0.98,90.452l-0.2,0.46l0.284,0.412c1.58,2.304,4.28,3.472,7.868,3.472
				c2.148,0,4.612-0.416,7.34-1.264c19.504-6.056,46.708-31.316,46.696-58.704C219.828,103.207,195.448,86.983,187.976,82.631z
				 M172.608,186.295c-6.164,1.92-10.708,1.516-12.884-1.108c20.788-48.844,8.248-75.508,0.752-91.46
				c-3.744-7.956-6.012-12.788-2.584-16.384c5.228-2.82,17.456,0.036,29.172,6.856c7.26,4.232,30.956,19.976,30.968,45.128
				C218.04,155.883,191.58,180.407,172.608,186.295z"/>
			<path d="M170.908,87.767c1.744-2.112,0.972-5.908-0.852-7.416c-1.828-1.508-5.692-1.544-7.44,0.568
				c-1.46,1.772-1.212,6.948-1.1,8.492l0.084,1.184l1.18-0.14C164.32,90.271,169.448,89.539,170.908,87.767z M169.16,86.323
				c-0.508,0.616-3.016,1.32-5.44,1.712c-0.076-2.452,0.14-5.052,0.648-5.668c0.468-0.568,1.376-0.832,2.264-0.832
				c0.772,0,1.532,0.2,1.98,0.572C169.58,82.899,170.032,85.263,169.16,86.323z"/>
			<path d="M180.824,95.383l1.136,0.332l0.28-1.156c0.368-1.504,1.468-6.568,0.316-8.552c-0.628-1.088-1.848-1.908-3.348-2.24
				c-1.412-0.316-2.872-0.144-3.896,0.448c-1.028,0.592-1.9,1.768-2.328,3.148c-0.46,1.468-0.364,2.932,0.26,4.02
				C174.396,93.375,179.332,94.951,180.824,95.383z M175.148,88.047c0.26-0.828,0.768-1.56,1.3-1.868
				c0.34-0.196,0.824-0.296,1.352-0.296c0.296,0,0.608,0.032,0.916,0.1c0.868,0.192,1.572,0.624,1.88,1.16
				c0.4,0.688,0.18,3.284-0.296,5.696c-2.328-0.788-4.684-1.896-5.084-2.584C174.908,89.723,174.88,88.895,175.148,88.047z"/>
			<path d="M176.408,102.683l-0.344-1.136c-0.448-1.48-2.076-6.404-4.072-7.532c-1.096-0.62-2.572-0.7-4.024-0.228
				c-1.376,0.448-2.548,1.332-3.128,2.364c-1.164,2.068-0.52,5.88,1.868,7.228c0.624,0.352,1.548,0.48,2.572,0.48
				c2.244,0,4.944-0.624,5.976-0.888L176.408,102.683z M167.824,101.403c-1.2-0.676-1.62-3.04-1.004-4.132
				c0.3-0.536,1.028-1.056,1.852-1.324c0.404-0.128,0.796-0.196,1.16-0.196c0.404,0,0.764,0.084,1.048,0.244
				c0.7,0.392,1.824,2.74,2.636,5.06C171.116,101.547,168.516,101.803,167.824,101.403z"/>
			<path d="M189.024,103.111l1.024-0.596c1.34-0.78,5.748-3.5,6.384-5.708c0.756-2.628-1.456-5.8-3.736-6.46
				c-2.256-0.64-5.84,0.856-6.596,3.488c-0.632,2.208,1.656,6.852,2.376,8.228L189.024,103.111z M188.28,94.463
				c0.328-1.14,2.008-2.008,3.232-2.008c0.2,0,0.388,0.024,0.556,0.072c1.208,0.348,2.564,2.336,2.184,3.656
				c-0.224,0.768-2.244,2.412-4.308,3.736C188.896,97.695,188.056,95.231,188.28,94.463z"/>
			<path d="M184.36,109.771c2.544-1.004,3.704-4.696,2.836-6.904c-0.872-2.2-4.232-4.104-6.78-3.096
				c-2.136,0.84-4.42,5.488-5.072,6.896l-0.5,1.08l1.1,0.448c1.172,0.476,4.632,1.796,7.02,1.796
				C183.496,109.991,183.972,109.923,184.36,109.771z M181.248,101.879c1.268-0.496,3.376,0.656,3.84,1.82
				c0.46,1.172-0.28,3.456-1.564,3.96c-0.736,0.284-3.276-0.308-5.588-1.136C179.06,104.339,180.504,102.171,181.248,101.879z"/>
			<path d="M190.828,143.383c-1.44,0.028-2.692,0.512-3.516,1.372c-1.588,1.652-1.74,6.828-1.744,8.38l-0.008,1.188l1.188-0.052
				c1.548-0.068,6.716-0.408,8.308-2.064c0.824-0.856,1.264-2.12,1.236-3.568c-0.032-1.552-0.596-3.004-1.516-3.888
				C193.856,143.867,192.392,143.403,190.828,143.383z M193.428,150.639c-0.556,0.576-3.108,1.084-5.56,1.288
				c0.116-2.452,0.524-5.024,1.08-5.6c0.4-0.416,1.1-0.66,1.924-0.672c0.028-0.004,0.052-0.004,0.08-0.004
				c0.908,0,1.784,0.284,2.252,0.74c0.48,0.464,0.804,1.368,0.824,2.3C194.044,149.511,193.828,150.223,193.428,150.639z"/>
			<path d="M195.492,100.803c-1.46,1.772-1.208,6.948-1.096,8.492l0.088,1.184l1.176-0.14c1.54-0.184,6.668-0.916,8.128-2.688
				c1.74-2.108,0.972-5.904-0.852-7.416C201.108,98.727,197.236,98.691,195.492,100.803z M201.492,101.987
				c0.968,0.8,1.42,3.16,0.548,4.22c-0.508,0.616-3.02,1.32-5.44,1.712c-0.08-2.452,0.132-5.052,0.644-5.668
				c0.468-0.568,1.38-0.832,2.268-0.832C200.284,101.415,201.04,101.615,201.492,101.987z"/>
			<path d="M195.96,113.155c-0.628-1.084-1.852-1.9-3.352-2.232c-1.416-0.32-2.868-0.144-3.892,0.448
				c-1.104,0.636-2.008,1.916-2.412,3.416c-0.376,1.396-0.248,2.728,0.344,3.756c1.148,1.98,6.084,3.556,7.572,3.992l1.14,0.332
				l0.28-1.156C196.008,120.207,197.112,115.147,195.96,113.155z M193.7,119.991c-2.328-0.788-4.688-1.892-5.088-2.584
				c-0.284-0.496-0.328-1.24-0.112-2.036c0.244-0.904,0.772-1.704,1.356-2.04c0.336-0.196,0.82-0.296,1.344-0.296
				c0.3,0,0.612,0.032,0.916,0.1c0.872,0.192,1.576,0.624,1.884,1.152C194.396,114.987,194.176,117.579,193.7,119.991z"/>
			<path d="M185.288,119.555l-0.692-0.964c-0.904-1.256-4.024-5.396-6.28-5.82c-1.176-0.236-2.46,0.1-3.652,0.916
				c-1.284,0.876-2.192,2.152-2.424,3.408c-0.224,1.164,0.1,2.592,0.868,3.824c0.812,1.304,1.984,2.188,3.22,2.416
				c0.164,0.032,0.336,0.048,0.52,0.048c2.356,0,6.244-2.4,7.448-3.184L185.288,119.555z M176.744,121.111
				c-0.604-0.112-1.248-0.632-1.716-1.392c-0.456-0.736-0.68-1.6-0.568-2.204c0.124-0.66,0.704-1.424,1.476-1.956
				c0.564-0.384,1.148-0.588,1.648-0.588c0.104,0,0.208,0.012,0.304,0.028c0.788,0.148,2.612,2.008,4.128,3.94
				C179.912,120.183,177.592,121.243,176.744,121.111z"/>
			<path d="M202.328,112.987c-1.132,2.084-0.436,5.888,1.964,7.2c0.596,0.324,1.456,0.444,2.416,0.444
				c2.272,0,5.084-0.688,6.132-0.972l1.148-0.308l-0.364-1.128c-0.468-1.476-2.164-6.372-4.18-7.472
				c-1.1-0.6-2.564-0.668-4.024-0.168C204.056,111.043,202.9,111.947,202.328,112.987z M204.324,114.071
				c0.292-0.54,1.012-1.068,1.832-1.344c0.416-0.144,0.824-0.216,1.2-0.216c0.388,0,0.736,0.08,1.008,0.228
				c0.704,0.384,1.868,2.716,2.712,5.02c-2.396,0.536-4.984,0.824-5.692,0.432C204.176,117.535,203.72,115.171,204.324,114.071z"/>
			<path d="M180.82,137.863l1.14,0.332l0.28-1.156c0.368-1.504,1.468-6.568,0.316-8.56c-1.368-2.36-5.184-2.98-7.248-1.784
				c-2.048,1.188-3.428,4.804-2.06,7.172C174.396,135.851,179.332,137.427,180.82,137.863z M176.448,128.659
				c0.344-0.196,0.82-0.292,1.328-0.292c1.092,0,2.348,0.444,2.82,1.252c0.4,0.696,0.18,3.288-0.296,5.7
				c-2.328-0.788-4.684-1.892-5.084-2.584C174.524,131.543,175.364,129.287,176.448,128.659z"/>
			<path d="M185.388,137.431l1.18-0.14c1.54-0.184,6.668-0.92,8.128-2.692c1.744-2.112,0.972-5.908-0.852-7.416
				c-0.916-0.756-2.324-1.168-3.768-1.084c-1.536,0.084-2.872,0.684-3.672,1.652c-1.46,1.772-1.212,6.948-1.1,8.492L185.388,137.431
				z M188.156,129.199c0.392-0.476,1.156-0.784,2.044-0.832c0.08-0.004,0.152-0.008,0.228-0.008c0.784,0,1.548,0.22,1.976,0.576
				c0.968,0.796,1.42,3.16,0.548,4.22c-0.508,0.616-3.016,1.32-5.44,1.716C187.432,132.411,187.648,129.819,188.156,129.199z"/>
			<path d="M199.752,132.823c1.54-0.184,6.668-0.92,8.128-2.692c1.744-2.112,0.972-5.908-0.852-7.416
				c-0.916-0.756-2.32-1.168-3.768-1.084c-1.536,0.084-2.872,0.684-3.672,1.652c-1.464,1.772-1.212,6.948-1.1,8.492l0.088,1.184
				L199.752,132.823z M201.336,124.731c0.392-0.476,1.156-0.784,2.044-0.832c0.08-0.004,0.152-0.008,0.228-0.008
				c0.784,0,1.548,0.22,1.976,0.576c0.968,0.796,1.42,3.16,0.548,4.22c-0.508,0.616-3.02,1.32-5.44,1.716
				C200.616,127.947,200.828,125.347,201.336,124.731z"/>
			<path d="M207.932,131.471c-2.048,1.188-3.428,4.804-2.06,7.176c1.148,1.98,6.084,3.556,7.572,3.992l1.144,0.332l0.276-1.156
				c0.364-1.504,1.464-6.568,0.312-8.56C213.812,130.895,209.996,130.275,207.932,131.471z M213.216,134.391
				c0.4,0.696,0.18,3.288-0.296,5.7c-2.324-0.788-4.684-1.892-5.084-2.584c-0.688-1.192,0.152-3.448,1.236-4.08
				c0.344-0.196,0.82-0.292,1.328-0.292C211.492,133.139,212.744,133.583,213.216,134.391z"/>
			<path d="M200.856,148.803l0.668-0.98c0.876-1.276,3.704-5.62,3.332-7.892c-0.444-2.696-3.784-4.648-6.14-4.24
				c-2.336,0.384-4.912,3.268-4.472,5.972c0.372,2.264,4.428,5.488,5.664,6.42L200.856,148.803z M196.484,141.299
				c-0.22-1.356,1.364-3.168,2.596-3.368c0.092-0.016,0.188-0.024,0.284-0.024c1.248,0,3.052,1.132,3.252,2.392
				c0.128,0.788-0.996,3.14-2.296,5.224C198.428,143.963,196.612,142.091,196.484,141.299z"/>
			<path d="M181.752,150.003l1.172,0.176l0.12-1.184c0.152-1.54,0.548-6.708-0.864-8.516c-0.732-0.936-1.92-1.552-3.356-1.732
				c-1.524-0.18-3.06,0.168-4.064,0.952c-0.936,0.728-1.636,2.016-1.88,3.436c-0.252,1.52,0.044,2.956,0.816,3.944
				C175.112,148.899,180.22,149.779,181.752,150.003z M175.124,143.519c0.144-0.856,0.548-1.652,1.036-2.028
				c0.424-0.332,1.12-0.524,1.86-0.524c0.176,0,0.356,0.012,0.532,0.036c0.82,0.096,1.492,0.416,1.844,0.868
				c0.492,0.632,0.632,3.236,0.488,5.688c-2.412-0.464-4.9-1.236-5.392-1.864C175.112,145.211,174.976,144.395,175.124,143.519z"/>
			<path d="M202.808,149.567c-1.44,0.028-2.684,0.516-3.504,1.368c-1.592,1.652-1.744,6.832-1.748,8.384l-0.008,1.188l1.188-0.052
				c1.548-0.068,6.72-0.408,8.312-2.064c1.9-1.972,1.42-5.812-0.284-7.452C205.84,150.051,204.372,149.607,202.808,149.567z
				 M205.416,156.823c-0.556,0.58-3.112,1.084-5.564,1.288c0.116-2.452,0.528-5.024,1.084-5.6c0.4-0.412,1.092-0.656,1.916-0.672
				c0.028-0.004,0.056-0.004,0.084-0.004c0.912,0,1.788,0.284,2.256,0.74C206.096,153.443,206.368,155.831,205.416,156.823z"/>
			<path d="M176.048,150.259c-1.18,0.1-2.472,0.796-3.448,1.86c-1.04,1.128-1.58,2.496-1.468,3.748
				c0.192,2.292,3.988,5.816,5.148,6.84l0.888,0.788l0.748-0.924c0.968-1.208,4.12-5.316,3.928-7.608
				C181.608,152.231,178.392,150.055,176.048,150.259z M176.888,160.179c-1.768-1.704-3.432-3.708-3.5-4.508
				c-0.052-0.608,0.276-1.368,0.88-2.02c0.584-0.636,1.364-1.084,1.976-1.136c0.044-0.004,0.088-0.004,0.14-0.004
				c1.248,0,3.084,1.316,3.2,2.636C179.652,155.951,178.344,158.203,176.888,160.179z"/>
			<path d="M190.524,155.475c-1.472-0.444-2.94-0.32-4.016,0.32c-1.968,1.176-3.476,6.132-3.892,7.624l-0.316,1.144l1.156,0.264
				c0.992,0.228,3.52,0.752,5.696,0.752c1.144,0,2.188-0.144,2.868-0.552c2.352-1.404,2.904-5.236,1.688-7.268
				C193.104,156.743,191.912,155.887,190.524,155.475z M190.856,163.083c-0.68,0.404-3.276,0.228-5.704-0.22
				c0.756-2.34,1.828-4.716,2.52-5.124c0.524-0.32,1.348-0.352,2.204-0.092c0.832,0.248,1.572,0.752,1.888,1.276
				C192.404,160.003,192.04,162.375,190.856,163.083z"/>
			<path d="M170.66,164.511c-1.796,0.704-3.636,4.556-4.16,5.72l-0.472,1.064l1.072,0.448c0.96,0.404,3.808,1.524,5.788,1.524
				c0.432,0,0.828-0.056,1.148-0.184c0.924-0.364,1.7-1.168,2.18-2.268c0.532-1.228,0.604-2.58,0.196-3.62
				C175.648,165.263,172.828,163.643,170.66,164.511z M174.136,169.907c-0.232,0.532-0.58,0.928-0.932,1.068
				c-0.452,0.2-2.268-0.224-4.116-0.892c0.896-1.748,1.936-3.272,2.408-3.46c0.832-0.32,2.436,0.472,2.808,1.404
				C174.488,168.499,174.42,169.255,174.136,169.907z"/>
			<path d="M185.972,166.927c-2.304-1.296-5.804,0.232-7.028,2.404c-0.684,1.212-0.84,2.928-0.408,4.488
				c0.356,1.264,1.06,2.248,1.98,2.772c0.52,0.292,1.26,0.408,2.096,0.408c2.256,0,5.192-0.832,6.264-1.164l1.028-0.312
				l-0.256-1.044C189.276,172.983,187.904,168.015,185.972,166.927z M181.636,174.615c-0.396-0.22-0.728-0.736-0.916-1.408
				c-0.268-0.968-0.188-2.08,0.2-2.764c0.552-0.98,2.028-1.724,3.132-1.724c0.304,0,0.584,0.06,0.804,0.184
				c0.576,0.324,1.58,2.568,2.304,5.068C184.648,174.639,182.204,174.939,181.636,174.615z"/>
			<path d="M168.112,175.559c-1.792,0.708-3.632,4.56-4.156,5.724l-0.472,1.064l1.072,0.448c0.96,0.404,3.808,1.524,5.788,1.524
				c0.432,0,0.828-0.056,1.152-0.184c2.188-0.864,3.132-3.96,2.372-5.892C173.104,176.327,170.312,174.691,168.112,175.559z
				 M170.66,182.023c-0.448,0.204-2.268-0.224-4.116-0.892c0.896-1.752,1.936-3.276,2.404-3.464c0.86-0.328,2.444,0.476,2.812,1.408
				C172.124,180.011,171.496,181.691,170.66,182.023z"/>
			<path d="M200.352,210.119c-2.056,1.188-3.436,4.804-2.068,7.176c1.148,1.98,6.084,3.556,7.572,3.992l1.144,0.332l0.276-1.156
				c0.364-1.504,1.464-6.568,0.316-8.56C206.22,209.531,202.4,208.931,200.352,210.119z M205.336,218.739
				c-2.328-0.788-4.688-1.892-5.088-2.584c-0.688-1.192,0.152-3.448,1.24-4.08c0.348-0.2,0.82-0.292,1.328-0.292
				c1.092,0,2.348,0.44,2.816,1.252C206.032,213.731,205.816,216.331,205.336,218.739z"/>
			<path d="M229.944,201.419c-0.84-2.216-4.156-4.168-6.744-3.196c-2.144,0.812-4.496,5.424-5.168,6.82l-0.512,1.076l1.092,0.46
				c1.18,0.504,4.696,1.9,7.084,1.9c0.492,0,0.936-0.06,1.304-0.196C229.564,207.315,230.784,203.639,229.944,201.419z
				 M220.632,204.943c1.156-2.168,2.624-4.316,3.376-4.596c1.26-0.496,3.372,0.704,3.816,1.876c0.444,1.176-0.332,3.452-1.62,3.94
				C225.456,206.419,222.924,205.807,220.632,204.943z"/>
			<path d="M232.2,205.643c-2.148,0.812-4.496,5.428-5.168,6.824l-0.512,1.076l1.092,0.46c1.18,0.5,4.692,1.9,7.084,1.9
				c0.492,0,0.936-0.06,1.304-0.196c2.556-0.968,3.772-4.644,2.936-6.864C238.104,206.627,234.784,204.679,232.2,205.643z
				 M235.2,213.579c-0.748,0.292-3.272-0.356-5.576-1.216c1.156-2.168,2.628-4.316,3.38-4.596c1.252-0.492,3.372,0.7,3.816,1.876
				C237.264,210.819,236.488,213.095,235.2,213.579z"/>
			<path d="M144.396,92.335l1.188,0.068l0.008-1.192c0.012-1.524-0.072-6.628-1.58-8.276c-0.784-0.86-1.992-1.36-3.392-1.408
				c-1.536-0.012-2.944,0.444-3.848,1.32c-1.684,1.632-2.18,5.344-0.356,7.344C137.944,91.847,142.908,92.251,144.396,92.335z
				 M138.348,84.475c0.436-0.42,1.244-0.684,2.08-0.684c0.04,0,0.084,0,0.124,0.004c0.768,0.024,1.42,0.264,1.788,0.668
				c0.52,0.572,0.884,3.096,0.964,5.508c-2.308-0.232-4.7-0.752-5.212-1.312C137.192,87.671,137.48,85.319,138.348,84.475z"/>
			<path d="M126.356,98.739l1.132-0.42c1.4-0.524,6.036-2.392,7.012-4.42c1.164-2.42-0.396-5.892-2.432-6.924
				c-1.1-0.552-2.596-0.6-4.004-0.132c-1.348,0.452-2.372,1.292-2.892,2.364c-0.972,2.028,0.392,6.928,0.832,8.384L126.356,98.739z
				 M127.216,90.183c0.248-0.508,0.82-0.944,1.572-1.2c0.408-0.136,0.832-0.204,1.22-0.204c0.396,0,0.756,0.072,1.036,0.212
				c1.072,0.544,2,2.7,1.416,3.916c-0.332,0.696-2.468,1.908-4.612,2.82C127.244,93.403,126.88,90.887,127.216,90.183z"/>
			<path d="M139.372,95.835c-1.348-0.268-2.624-0.084-3.588,0.56c-1.852,1.24-3.096,6.184-3.436,7.668l-0.268,1.148l1.156,0.22
				c0.868,0.168,2.952,0.52,4.896,0.52c1.332,0,2.596-0.164,3.356-0.676c2.24-1.5,2.608-5.228,1.344-7.228
				C142.148,96.971,140.856,96.147,139.372,95.835z M140.22,103.391c-0.628,0.42-3.076,0.34-5.376,0.012
				c0.636-2.328,1.564-4.7,2.2-5.124c0.44-0.292,1.12-0.38,1.86-0.22c0.872,0.18,1.66,0.656,2.012,1.204
				C141.572,100.303,141.324,102.655,140.22,103.391z"/>
			<path d="M119.052,105.907l1.084,0.556l0.48-1.112c0.596-1.396,2.5-6.104,1.752-8.232c-0.392-1.12-1.32-2.08-2.608-2.688
				c-1.348-0.628-2.832-0.756-3.988-0.332c-2.192,0.812-4.088,4.016-3.188,6.596C113.328,102.831,117.724,105.223,119.052,105.907z
				 M116.56,96.223c0.2-0.076,0.432-0.108,0.688-0.108c0.48,0,1.032,0.128,1.544,0.372c0.716,0.336,1.252,0.852,1.436,1.384
				c0.256,0.74-0.38,3.188-1.232,5.428c-2.032-1.164-4.02-2.62-4.272-3.352C114.28,98.671,115.44,96.643,116.56,96.223z"/>
			<path d="M124.952,112.687c0.292,0.092,0.632,0.136,1.008,0.136c2.308,0,5.836-1.652,6.988-2.228l1.04-0.52l-0.54-1.028
				c-0.712-1.34-3.188-5.776-5.3-6.476c-1.072-0.348-2.34-0.2-3.572,0.42c-1.368,0.704-2.412,1.856-2.792,3.08
				C121.084,108.299,122.436,111.855,124.952,112.687z M123.948,106.751c0.196-0.628,0.864-1.324,1.664-1.736
				c0.46-0.24,0.92-0.364,1.324-0.364c0.18,0,0.348,0.028,0.5,0.08c0.72,0.24,2.224,2.268,3.424,4.34
				c-2.132,0.948-4.48,1.716-5.2,1.46C124.42,110.123,123.576,107.931,123.948,106.751z"/>
			<path d="M125.44,156.591l1.184-0.028l-0.08-1.18c-0.1-1.524-0.56-6.604-2.192-8.136c-0.848-0.792-2.048-1.204-3.48-1.132
				c-1.508,0.072-2.908,0.672-3.74,1.612c-1.564,1.756-1.784,5.496,0.192,7.352c1.432,1.344,5.436,1.52,7.412,1.52
				C125.012,156.599,125.252,156.595,125.44,156.591z M118.876,153.423c-0.972-0.912-0.86-3.276-0.048-4.188
				c0.424-0.48,1.264-0.816,2.148-0.856c0.064-0.004,0.12-0.004,0.18-0.004c0.692,0,1.284,0.188,1.644,0.528
				c0.564,0.528,1.108,3.02,1.372,5.42C121.852,154.275,119.432,153.943,118.876,153.423z"/>
			<path d="M114.204,113.971l1.188,0.068l0.008-1.192c0.012-1.524-0.072-6.628-1.58-8.276c-0.792-0.864-2-1.364-3.4-1.408
				c-1.476,0.004-2.936,0.452-3.84,1.32c-1.684,1.632-2.184,5.34-0.356,7.344C107.744,113.487,112.716,113.887,114.204,113.971z
				 M108.16,106.115c0.432-0.42,1.24-0.688,2.076-0.688c0.04,0,0.08,0,0.116,0.004c0.772,0.024,1.428,0.264,1.796,0.668
				c0.52,0.572,0.884,3.096,0.964,5.512c-2.308-0.236-4.7-0.752-5.212-1.316C107,109.307,107.288,106.959,108.16,106.115z"/>
			<path d="M116.36,125.859c1.4-0.524,6.036-2.392,7.012-4.42c1.184-2.46-0.348-5.864-2.428-6.924
				c-1.1-0.556-2.596-0.604-4.008-0.128c-1.348,0.452-2.376,1.292-2.888,2.364c-0.976,2.024,0.388,6.924,0.828,8.38l0.352,1.156
				L116.36,125.859z M116.092,117.731c0.244-0.508,0.816-0.944,1.568-1.2c0.412-0.14,0.836-0.208,1.228-0.208
				c0.392,0,0.752,0.072,1.028,0.212c1.072,0.544,2,2.704,1.416,3.916c-0.332,0.696-2.468,1.908-4.612,2.82
				C116.116,120.951,115.752,118.435,116.092,117.731z"/>
			<path d="M133.508,125.515c2.596-0.688,4.124-4.096,3.556-6.412c-0.312-1.248-1.292-2.464-2.612-3.248
				c-1.184-0.696-2.432-0.924-3.536-0.636c-2.148,0.568-4.888,4.84-5.672,6.136l-0.6,0.992l1.004,0.58
				c1.164,0.672,4.82,2.672,7.124,2.672C133.036,125.603,133.288,125.575,133.508,125.515z M127.824,121.539
				c1.32-1.992,2.936-3.928,3.672-4.12c0.484-0.144,1.152,0.012,1.8,0.396c0.776,0.456,1.408,1.2,1.568,1.84
				c0.296,1.196-0.668,3.336-1.928,3.668C132.236,123.535,129.908,122.623,127.824,121.539z"/>
			<path d="M103.46,124.815c1.248,0,2.416-0.156,3.136-0.628c2.26-1.464,2.684-5.188,1.444-7.204
				c-0.668-1.084-1.948-1.928-3.432-2.26c-1.356-0.308-2.628-0.124-3.588,0.504c-1.872,1.216-3.184,6.14-3.544,7.62l-0.276,1.14
				l1.148,0.236C99.248,124.407,101.46,124.815,103.46,124.815z M102.252,117.123c0.444-0.284,1.12-0.36,1.86-0.188
				c0.872,0.196,1.656,0.68,2,1.236c0.644,1.048,0.36,3.396-0.752,4.116c-0.62,0.416-3.072,0.3-5.372-0.072
				C100.648,119.899,101.608,117.543,102.252,117.123z"/>
			<path d="M128.988,140.503l1.132-0.424c1.396-0.524,6.028-2.396,7.012-4.424c1.18-2.456-0.352-5.864-2.432-6.924
				c-1.1-0.564-2.604-0.604-4.012-0.128c-1.344,0.452-2.368,1.296-2.88,2.364c-0.976,2.024,0.388,6.928,0.828,8.384L128.988,140.503
				z M129.848,131.943c0.244-0.504,0.812-0.94,1.564-1.196c0.412-0.14,0.832-0.208,1.228-0.208c0.392,0,0.752,0.072,1.028,0.212
				c1.076,0.548,2.004,2.704,1.42,3.916c-0.336,0.692-2.472,1.908-4.616,2.824C129.872,135.167,129.508,132.651,129.848,131.943z"/>
			<path d="M125.744,139.951l0.008-1.192c0.012-1.524-0.068-6.624-1.58-8.276c-0.788-0.864-1.996-1.364-3.4-1.408
				c-1.496-0.008-2.936,0.452-3.832,1.32c-1.66,1.6-2.16,5.38-0.36,7.344c1.516,1.66,6.484,2.064,7.972,2.144L125.744,139.951z
				 M118.256,136.207c-0.908-0.988-0.616-3.336,0.26-4.184c0.432-0.416,1.24-0.684,2.072-0.684c0.04,0,0.084,0,0.12,0.004
				c0.772,0.024,1.424,0.264,1.792,0.668c0.524,0.576,0.884,3.096,0.964,5.508C121.16,137.291,118.772,136.771,118.256,136.207z"/>
			<path d="M112.868,136.395l0.008-1.192c0.012-1.524-0.072-6.624-1.58-8.272c-0.784-0.86-1.992-1.36-3.392-1.408
				c-1.512-0.028-2.944,0.444-3.848,1.32c-1.688,1.632-2.18,5.344-0.356,7.34c1.52,1.664,6.488,2.064,7.976,2.144L112.868,136.395z
				 M105.376,132.655c-0.9-0.984-0.612-3.336,0.256-4.18c0.436-0.42,1.244-0.684,2.08-0.684c0.04,0,0.084,0,0.124,0.004
				c0.768,0.024,1.42,0.264,1.788,0.668c0.52,0.572,0.884,3.092,0.964,5.508C108.284,133.735,105.892,133.215,105.376,132.655z"/>
			<path d="M106.248,142.423c1.164-2.42-0.396-5.892-2.432-6.924c-1.096-0.552-2.588-0.604-4.008-0.132
				c-1.348,0.456-2.372,1.292-2.892,2.368c-0.968,2.024,0.392,6.924,0.832,8.38l0.352,1.156l1.132-0.42
				C100.632,146.323,105.264,144.459,106.248,142.423z M104.204,141.439c-0.336,0.692-2.472,1.908-4.62,2.82
				c-0.596-2.328-0.96-4.844-0.624-5.548c0.248-0.508,0.82-0.944,1.572-1.196c0.412-0.14,0.832-0.208,1.224-0.208
				c0.396,0,0.756,0.072,1.036,0.212C103.856,138.063,104.788,140.219,104.204,141.439z"/>
			<path d="M111.612,152.143l0.916-0.812c1.12-0.996,4.804-4.424,5.02-6.676c0.252-2.688-2.408-5.372-4.684-5.6
				c-1.208-0.104-2.616,0.372-3.768,1.316c-1.108,0.916-1.78,2.072-1.896,3.26c-0.212,2.248,2.756,6.34,3.672,7.54L111.612,152.143z
				 M110.532,142.123c0.616-0.512,1.364-0.82,1.948-0.82c0.056,0,0.104,0.004,0.152,0.008c1.18,0.116,2.78,1.788,2.652,3.132
				c-0.076,0.772-1.656,2.696-3.352,4.34c-1.356-1.952-2.556-4.16-2.48-4.94C109.508,143.275,109.912,142.631,110.532,142.123z"/>
			<path d="M128.796,152.339l1.176-0.26c1.452-0.32,6.296-1.512,7.544-3.396c1.5-2.268,0.44-5.856-1.48-7.2
				c-1.016-0.712-2.496-0.96-3.968-0.688c-1.388,0.26-2.508,0.948-3.16,1.932c-1.24,1.868-0.544,6.916-0.3,8.42L128.796,152.339z
				 M130.796,143.979c0.308-0.46,0.924-0.812,1.696-0.956c0.248-0.048,0.496-0.072,0.74-0.072c0.592,0,1.144,0.136,1.508,0.392
				c0.992,0.692,1.628,2.964,0.888,4.088c-0.42,0.636-2.704,1.536-4.948,2.14C130.388,147.175,130.364,144.631,130.796,143.979z"/>
			<path d="M113.284,154.091c-0.852-0.796-2.096-1.184-3.48-1.136c-1.508,0.072-2.908,0.672-3.744,1.616
				c-1.56,1.756-1.776,5.492,0.192,7.348c1.432,1.344,5.436,1.52,7.412,1.52c0.276,0,0.516-0.004,0.704-0.008l1.184-0.028
				l-0.08-1.18C115.368,160.699,114.912,155.619,113.284,154.091z M107.804,160.267c-0.968-0.916-0.856-3.28-0.048-4.196
				c0.424-0.476,1.268-0.812,2.148-0.852c0.06-0.004,0.116-0.004,0.176-0.004c0.692,0,1.288,0.188,1.652,0.532
				c0.564,0.528,1.104,3.016,1.368,5.416C110.78,161.115,108.356,160.783,107.804,160.267z"/>
			<path d="M140.516,157.147c0.048-2.708-2.812-5.172-5.096-5.216c-2.244-0.112-5.244,2.3-5.292,5.008
				c-0.048,2.256,3.224,6.1,4.224,7.228l0.816,0.916l0.848-0.88C137.06,163.115,140.476,159.407,140.516,157.147z M132.392,156.987
				c0.028-1.336,1.772-2.788,2.952-2.788c0.012,0,0.02,0,0.028,0c1.184,0.024,2.904,1.56,2.88,2.908
				c-0.016,0.78-1.452,2.824-3.02,4.596C133.736,159.863,132.376,157.767,132.392,156.987z"/>
			<path d="M130.376,166.411L130,165.307c-0.488-1.44-2.236-6.228-4.208-7.26c-1.012-0.528-2.3-0.588-3.616-0.168
				c-1.452,0.468-2.656,1.428-3.224,2.572c-1.036,2.08-0.26,5.812,2.084,7.048c0.532,0.276,1.264,0.388,2.084,0.388
				c2.236,0,5.092-0.808,6.14-1.124L130.376,166.411z M122.092,165.487c-1.168-0.612-1.656-2.92-1.104-4.028
				c0.288-0.58,1.048-1.152,1.888-1.42c0.352-0.116,0.696-0.172,1.008-0.172c0.328,0,0.62,0.064,0.86,0.188
				c0.676,0.356,1.84,2.612,2.708,4.856C125.188,165.495,122.752,165.839,122.092,165.487z"/>
			<path d="M145.336,172.503l1.012-0.516l-0.52-1.012c-0.736-1.424-2.624-4.804-4.352-5.38c-0.916-0.296-1.976-0.168-3,0.356
				c-1.168,0.6-2.068,1.596-2.404,2.668c-0.608,1.944,0.496,4.936,2.656,5.652c0.252,0.084,0.544,0.116,0.856,0.116
				C141.432,174.391,144.136,173.123,145.336,172.503z M138.24,169.303c0.152-0.484,0.664-1.016,1.272-1.332
				c0.336-0.172,0.668-0.26,0.944-0.26c0.112,0,0.216,0.016,0.304,0.044c0.46,0.168,1.54,1.596,2.488,3.244
				c-1.688,0.752-3.356,1.268-3.808,1.124C138.632,171.851,137.944,170.243,138.24,169.303z"/>
			<path d="M130.18,168.471c-1.252-0.26-2.4-0.088-3.252,0.488c-1.788,1.2-2.792,6.172-3.06,7.664l-0.184,1.048l1.032,0.252
				c0.944,0.232,3.356,0.764,5.416,0.764c1.08,0,2.064-0.148,2.684-0.568c2.136-1.432,2.376-5.18,1.068-7.244
				C133.14,169.715,131.72,168.791,130.18,168.471z M131.548,176.239c-0.524,0.356-2.828,0.208-5.24-0.284
				c0.54-2.496,1.356-4.76,1.884-5.112c0.344-0.232,0.896-0.28,1.52-0.152c0.936,0.196,1.844,0.76,2.252,1.408
				C132.72,173.287,132.488,175.611,131.548,176.239z"/>
			<path d="M144.592,176.303c-0.912-0.296-1.972-0.176-2.992,0.348c-1.156,0.592-2.08,1.616-2.412,2.672
				c-0.608,1.944,0.496,4.932,2.656,5.652c0.252,0.084,0.544,0.12,0.86,0.12c1.844,0,4.548-1.272,5.752-1.892l1.008-0.516
				l-0.52-1.012C148.212,180.251,146.324,176.871,144.592,176.303z M142.556,182.819c-0.812-0.264-1.496-1.876-1.204-2.816
				c0.152-0.484,0.664-1.016,1.276-1.332c0.332-0.168,0.66-0.256,0.936-0.256c0.116,0,0.224,0.016,0.312,0.048
				c0.46,0.164,1.54,1.592,2.488,3.236C144.684,182.447,143.02,182.963,142.556,182.819z"/>
			<path d="M147.216,51.331c0.12-0.208,0.192-0.256,0.188-0.264c0.044,0.012,0.136,0.084,0.172,0.108
				c1.076,0.792,2.084,1.664,3.004,2.584c0.428,0.428,1.084,1.08,1.996,1.092c0.004,0,0.012,0,0.016,0c0.56,0,1.044-0.244,1.4-0.416
				l7.144-3.592c0.28-0.14,0.396-0.484,0.252-0.76s-0.476-0.384-0.76-0.252l-7.144,3.592c-0.34,0.172-0.62,0.3-0.888,0.3h-0.004
				c-0.416-0.008-0.796-0.352-1.208-0.764c-0.96-0.956-2.016-1.864-3.132-2.696c-0.144-0.104-0.416-0.304-0.776-0.328
				c-0.02,0-0.044,0-0.068,0c-0.46,0-0.856,0.28-1.176,0.836l-2.424,4.268l-4.008-4.308c-0.208-0.228-0.568-0.24-0.8-0.028
				c-0.232,0.212-0.244,0.572-0.028,0.8l5.064,5.44L147.216,51.331z"/>
		</g>
	</g>
</g>
</svg>