<svg viewBox="1.9729729729729728 17.216 97.02702702702703 63.449999999999996" version="1.1" xmlns="http://www.w3.org/2000/svg" style="max-height: 500px" width="97.02702702702703" height="63.449999999999996">
 <path d="m93.578 48.414-15.719-7.1797v-2.1758c0-1.0664-0.52344-2.0625-1.4023-2.6602-1.5977-1.0938-4.8281-3.25-8.5586-5.3828-3.2109-1.8398-5.5703-3.0312-7.6523-3.8672-1.1289-0.45313-2.2812-0.50391-3.6328-0.16016-1.0586 0.26953-3.9141 1.0938-4.5586 1.2773-1.7109-1.5586-4.043-2.6641-5.6602-3.2031-3.2148-1.0703-6.5938-0.46094-8.6094 1.5508-1.2031 1.2031-2.0742 3.6797-1.0508 6.0352-1.9766 0.60547-8.7812 2.6875-11.898 3.6172-3.6367 1.0859-5.5312 1.8125-5.4805 5.2656v0.003906 2.8203l-12.562 4.2422c-0.98438 0.33203-1.6641 1.1797-1.7812 2.2109-0.11328 1.0312 0.36328 2.0078 1.2461 2.5469l2.5703 1.5703c1.2109 0.73828 1.4258 1.6133 1.6992 2.7227l0.039062 0.16016c0.32422 1.3047 0.85938 2.7031 3.4141 4.2539 1.6953 1.0312 12.469 7.6406 18.887 11.578 1.9609 1.2031 4.1758 1.8203 6.4062 1.8203 1.3828 0 2.7734-0.23438 4.1172-0.71484 11.469-4.0781 38.484-13.691 41.656-14.875 2.7891-1.0391 3.4102-1.7227 3.7617-3.1289l0.039062-0.16016c0.26953-1.0938 0.48828-1.9609 1.6562-2.6914l2.8359-0.96875c0.96094-0.32812 1.5938-1.1641 1.6406-2.1797 0.050781-1.0156-0.49219-1.9102-1.418-2.332zm-68.457-11.199c3.2266-0.96094 10.402-3.1602 12.102-3.6797 0.19922 0.30078 0.42969 0.59766 0.70312 0.88281 3.1211 3.2539 6.6602 2.8203 7.6719 2.6133 0.90625-0.1875 1.5547-0.61719 2.0117-1.1445 0.90234-0.13281 1.6328-0.46094 2.1367-0.96875 0.50781-0.50781 0.76562-1.1836 0.74219-1.9453-0.027343-0.85938-0.46875-1.2227-0.73047-1.3594-0.4375-0.23047-0.99609-0.19531-1.457 0.097657-0.47656 0.30078-0.75 0.80469-0.72656 1.3516 0.003906 0.066406 0.035156 1.0547-0.50781 1.8945-0.21094 0.015625-0.4375 0.019531-0.66406 0.011719-0.60156-0.019531-1.1094-0.26953-1.4727-0.73047-0.44141-0.5625-0.60156-1.3477-0.42969-2.1562 0.13672-0.65625 0.58203-1.2422 1.2539-1.6602 0.89453-0.55469 2.0234-0.71094 3.0938-0.43359 1.5859 0.41406 1.8711 1.0898 1.8711 1.0898 0.074219 0.26172 0.35156 0.41406 0.60938 0.33984 0.26172-0.074219 0.41406-0.34766 0.33984-0.60938-0.035157-0.12109-0.40234-1.2109-2.5742-1.7773-1.332-0.34766-2.7422-0.14844-3.8633 0.55078-0.90234 0.55859-1.5078 1.375-1.6992 2.2969-0.23047 1.0977-0.003906 2.1797 0.62109 2.9727 0.44531 0.56641 1.0625 0.93359 1.7617 1.0586-0.15625 0.0625-0.32812 0.11719-0.51953 0.15625-0.88281 0.18359-3.9883 0.55859-6.7578-2.3281-2.1016-2.1914-1.4414-5.1367-0.15625-6.4219 1.7539-1.7539 4.7344-2.2656 7.5977-1.3125 2.6797 0.89453 6.8047 3.2461 7.1758 6.0664 0.35938 2.7227-0.72656 4.7227-3.75 6.8945-2.1211 1.5273-5.6719 2.6836-7.793 3.375-0.63672 0.20703-1.1445 0.375-1.4648 0.49609-0.80078 0.3125-1.2383 0.97656-1.0977 1.6445 0.14062 0.66797 0.88672 1.3555 2.5469 1.3555 0.089844 0 0.17969-0.003907 0.27344-0.007813 1.8008-0.078125 3.7305-0.57812 5.6016-1.0664 0.49219-0.12891 0.97656-0.25391 1.4492-0.37109 1.5898-0.38672 4.6094-1.4648 8.1055-2.7109 1.4336-0.51172 2.9258-1.043 4.3906-1.5508 0.25781-0.089844 0.39453-0.37109 0.30469-0.62891-0.089843-0.25781-0.37109-0.39453-0.62891-0.30469-1.4648 0.50781-2.9609 1.043-4.3984 1.5547-3.3281 1.1875-6.4688 2.3047-8.0078 2.6836-0.47656 0.11719-0.96875 0.24219-1.4648 0.375-1.8203 0.47266-3.6992 0.96484-5.3945 1.0352-1.2266 0.050781-1.7617-0.32031-1.8125-0.56641-0.039062-0.17969 0.16406-0.39062 0.49219-0.51953 0.30469-0.12109 0.79688-0.28125 1.4062-0.48047 2.1758-0.71094 5.8203-1.8945 8.0664-3.5117 3.3203-2.3867 4.5625-4.7305 4.1523-7.8281-0.14062-1.0586-0.66406-2.0156-1.3984-2.8672 1.0664-0.30859 3.168-0.90625 4.0156-1.1211 1.1406-0.28906 2.0977-0.25 3.0234 0.12109 2.0352 0.82031 4.3594 1.9922 7.5312 3.8086 3.6992 2.1172 6.9062 4.2539 8.4883 5.3398 0.60938 0.41406 0.97266 1.1055 0.97266 1.8477l0.003907 11.395c0.023437 1.4766 0.035156 2.3672-2.3828 3.1602-1.0469 0.34375-5.2383 1.75-10.305 3.4531-8.7969 2.9531-22.086 7.4141-22.656 7.5547-0.62109 0.14453-1.4648 0.34766-2.0938-1.168 0.54687-1.8633 1.457-6.1133 1.2812-7.9492-0.12891-1.3398-0.79297-1.8242-1.3711-1.8281-0.67969 0.003906-1.3711 0.60938-1.5273 1.9922-0.15234 1.3281-0.19922 5.5859 0.57812 7.8242-0.007813 0.18359-0.125 0.61328-0.40625 0.70312-0.42578 0.13672-1.1523-0.28125-1.4727-0.42969-1.457-0.67969-13.695-7.9492-14.883-8.8398-1.0078-0.75781-1.2852-1.3281-1.2852-2.668v-10.723c0-0.27344 0.046875-0.625 0.27734-0.75781 0.23828-0.13672 0.78516-0.12109 1.6016 0.34766 0.64062 0.36719 3.5625 2.0664 6.625 3.8438 3.5312 2.0547 7.2461 4.2109 7.8555 4.5547 1.2578 0.71094 3.4727 1.1211 5.5859 0.4375 0.82813-0.26953 5.6562-1.918 11.246-3.8242 7.7852-2.6562 16.609-5.6719 17.551-5.9531 1.0508-0.32031 1.9414-0.28516 2.4375 0.09375 0.42578 0.32422 0.62891 0.9375 0.60547 1.8242-0.007812 0.27344 0.20703 0.5 0.48047 0.50781 0.28125 0 0.5-0.20703 0.50781-0.48047 0.035156-1.2188-0.30078-2.1055-0.99219-2.6367-0.76172-0.58203-1.9414-0.67188-3.3242-0.25391-0.95703 0.28906-9.7891 3.3047-17.582 5.9648-5.5859 1.9062-10.41 3.5547-11.23 3.8203-1.8164 0.58984-3.7578 0.23047-4.793-0.35547-0.60937-0.34375-4.3164-2.5-7.8438-4.5508-3.0625-1.7812-5.9883-3.4805-6.6289-3.8477-0.79297-0.45312-1.5156-0.625-2.0977-0.51562 0.49219-1.1797 1.7578-1.7188 4.5039-2.5352zm23.176-2.5234c0.21875-0.60156 0.28125-1.2109 0.26562-1.6758-0.011719-0.26562 0.18359-0.41797 0.26562-0.47266 0.10156-0.0625 0.21094-0.097657 0.30859-0.097657 0.058593 0 0.11328 0.011719 0.15625 0.035157 0.16797 0.089843 0.20312 0.36328 0.20703 0.51953 0.015625 0.49219-0.13672 0.90234-0.45312 1.2188-0.19141 0.19531-0.44531 0.35156-0.75 0.47266zm-9.3594 26.723c-0.28125-1.9922-0.26953-4.5-0.14062-5.6328 0.097656-0.83984 0.42969-1.1133 0.53516-1.1133 0.082031 0 0.32812 0.22266 0.39453 0.93359 0.11719 1.2305-0.34375 3.8398-0.79297 5.8125zm48.961-5.0625-0.039063 0.15625c-0.23047 0.91797-0.47266 1.4453-3.1484 2.4414-3.1641 1.1797-30.176 10.789-41.641 14.867-3.2305 1.1484-6.7578 0.77734-9.6758-1.0156-6.418-3.9414-17.195-10.551-18.891-11.582-2.2344-1.3555-2.6797-2.5039-2.9688-3.6484l-0.039062-0.15625c-0.085938-0.34766-0.18359-0.69922-0.30469-1.0469l21.996 13.438c1.5352 0.9375 3.2734 1.418 5.0234 1.418 1.0508 0 2.1055-0.17188 3.125-0.51953l47.184-16.125c-0.31641 0.57422-0.47266 1.1797-0.62109 1.7734zm5.1367-4.3633-52.016 17.777c-2.4453 0.83594-5.1094 0.54297-7.3164-0.80469l-26.922-16.449c-0.5625-0.34375-0.85547-0.94141-0.78125-1.5938 0.074219-0.65625 0.48828-1.1719 1.1133-1.3828l12.242-4.1367v6.8594c0 1.6445 0.42578 2.5156 1.6797 3.4609 1.1992 0.90234 13.586 8.2578 15.059 8.9453 0.95312 0.44531 1.6562 0.67578 2.2344 0.46094 0.27734-0.10547 0.47656-0.29297 0.61719-0.49219 0.60156 0.87109 1.3359 1.0742 1.9336 1.0742 0.35547 0 0.66406-0.070312 0.87109-0.12109 0.52734-0.125 10.613-3.5078 22.746-7.5781 5.0625-1.6992 9.2539-3.1055 10.301-3.4492 3.1094-1.0195 3.0859-2.5938 3.0625-4.1133l-0.003906-8.1172 15.309 6.9922c0.65625 0.30078 0.86328 0.91016 0.83984 1.3828-0.023437 0.47266-0.29297 1.0586-0.97266 1.293zm-77.938-2.3008c0.011719 0.27344-0.19922 0.50391-0.47266 0.51562-0.59375 0.027344-1.3516 0.47266-1.5273 1.0977-0.17188 0.60156 0.26953 1.2969 1.2383 1.9531 0.22656 0.15234 0.28516 0.46094 0.13281 0.6875-0.097656 0.14062-0.25391 0.21875-0.41016 0.21875-0.097656 0-0.19141-0.027344-0.27734-0.085937-1.8242-1.2344-1.8086-2.4336-1.6367-3.0391 0.30859-1.0859 1.4805-1.7734 2.4336-1.8164 0.30078-0.011719 0.50391 0.19922 0.51562 0.47266zm74.383 1.1484c-0.050781 0.67578-0.58984 1.2227-1.4375 1.4648-1.8086 0.51172-2.3477 0.68359-2.3555 0.6875-0.050781 0.015625-0.10156 0.023438-0.15234 0.023438-0.21094 0-0.40234-0.13281-0.47266-0.34375-0.082031-0.26172 0.058594-0.53906 0.32031-0.62109 0 0 0.53906-0.17188 2.3867-0.69531 0.43359-0.12109 0.70312-0.34375 0.72266-0.58984 0.015624-0.22266-0.17188-0.54297-0.62891-0.75391-1.1836-0.54297-4.2227-1.8984-4.2227-1.8984s-0.45312-0.21484-0.28125-0.65625c0.17188-0.44531 0.6875-0.24609 0.6875-0.24609s3.043 1.3594 4.2305 1.9023c0.78516 0.35938 1.2578 1.0391 1.2031 1.7266z"/>
<text fill="#000000" font-family="Arbeit Regular, Helvetica, Arial-Unicode, Arial, Sans-serif" font-weight="bold" font-size="5.0" y="117.5" x="0.0">Created by Laymik</text><text fill="#000000" font-family="Arbeit Regular, Helvetica, Arial-Unicode, Arial, Sans-serif" font-weight="bold" font-size="5.0" y="122.5" x="0.0">from Noun Project</text></svg>