<?xml version="1.0" encoding="UTF-8"?>
<svg version="1.1" xmlns="http://www.w3.org/2000/svg" width="64" height="64">
<path d="M0 0 C4.62 0 9.24 0 14 0 C14.66 1.32 15.32 2.64 16 4 C16.66 2.68 17.32 1.36 18 0 C22.62 0 27.24 0 32 0 C34 5 34 5 34 9 C36.64 9 39.28 9 42 9 C43.19443297 12.41266564 44.20038315 15.79037815 45 19.3125 C45.33 20.529375 45.66 21.74625 46 23 C46.66 23.33 47.32 23.66 48 24 C48.21850155 27.91893106 47.57979933 30.64303933 46.0625 34.25 C45.70285156 35.12140625 45.34320313 35.9928125 44.97265625 36.890625 C44 39 44 39 43 40 C41.42032214 40.1089531 39.83582605 40.14904958 38.25244141 40.16113281 C37.24114166 40.17074036 36.22984192 40.1803479 35.18789673 40.19024658 C34.08690643 40.19449646 32.98591614 40.19874634 31.8515625 40.203125 C30.72809418 40.20882507 29.60462585 40.21452515 28.44711304 40.22039795 C26.06468655 40.2298649 23.68224688 40.23638862 21.29980469 40.24023438 C17.6475549 40.24994006 13.99586755 40.28094823 10.34375 40.3125 C8.03385752 40.31902959 5.72396101 40.32428023 3.4140625 40.328125 C1.76864975 40.3466452 1.76864975 40.3466452 0.08999634 40.36553955 C-0.92760773 40.36253845 -1.94521179 40.35953735 -2.99365234 40.35644531 C-3.88998383 40.36009094 -4.78631531 40.36373657 -5.70980835 40.36749268 C-8.46289633 39.92572193 -9.33353226 39.19456285 -11 37 C-11.66957496 34.32681142 -11.77362708 31.76174963 -12 29 C-12.66 29 -13.32 29 -14 29 C-14 27.35 -14 25.7 -14 24 C-13.34 24 -12.68 24 -12 24 C-12 22.68 -12 21.36 -12 20 C-11.01 20 -10.02 20 -9 20 C-9 20.99 -9 21.98 -9 23 C-4.38 23 0.24 23 5 23 C4.67 21.948125 4.34 20.89625 4 19.8125 C3 16 3 16 3 11 C-0.3 11.33 -3.6 11.66 -7 12 C-7.33 13.32 -7.66 14.64 -8 16 C-8.99 16 -9.98 16 -11 16 C-10.67 13.69 -10.34 11.38 -10 9 C-7.36 8.67 -4.72 8.34 -2 8 C-1.34 5.36 -0.68 2.72 0 0 Z M2 2 C1.67 4.31 1.34 6.62 1 9 C2.32 9 3.64 9 5 9 C5.1953125 11.05078125 5.390625 13.1015625 5.5859375 15.15234375 C5.72257812 15.76207031 5.85921875 16.37179688 6 17 C6.66 17.33 7.32 17.66 8 18 C8.33 15.03 8.66 12.06 9 9 C10.65 9 12.3 9 14 9 C13.34 6.69 12.68 4.38 12 2 C8.7 2 5.4 2 2 2 Z M20 2 C19.67 4.31 19.34 6.62 19 9 C20.65 9 22.3 9 24 9 C24.33 12.3 24.66 15.6 25 19 C27.29575603 16.70424397 27.32339599 15.99157475 27.625 12.875 C27.74875 11.59625 27.8725 10.3175 28 9 C28.99 9 29.98 9 31 9 C30.67 6.69 30.34 4.38 30 2 C26.7 2 23.4 2 20 2 Z M11 11 C10.34 14.96 9.68 18.92 9 23 C13.62 23 18.24 23 23 23 C22.67 19.04 22.34 15.08 22 11 C18.37 11 14.74 11 11 11 Z M30 11 C29.34 14.96 28.68 18.92 28 23 C32.62 23 37.24 23 42 23 C41.855625 21.39125 41.71125 19.7825 41.5625 18.125 C41.48128906 17.22007813 41.40007813 16.31515625 41.31640625 15.3828125 C41.13010715 12.98889139 41.13010715 12.98889139 40 11 C36.7 11 33.4 11 30 11 Z M-12 26 C-12 26.33 -12 26.66 -12 27 C7.14 27 26.28 27 46 27 C46 26.67 46 26.34 46 26 C26.86 26 7.72 26 -12 26 Z M9 30 C9 30.66 9 31.32 9 32 C3.06 32 -2.88 32 -9 32 C-8.67 33.65 -8.34 35.3 -8 37 C-5.60417654 38.19791173 -4.13222462 38.1206744 -1.45849609 38.11352539 C-0.04725967 38.11341209 -0.04725967 38.11341209 1.39248657 38.11329651 C2.91910416 38.10555458 2.91910416 38.10555458 4.4765625 38.09765625 C5.51694672 38.0962413 6.55733093 38.09482635 7.62924194 38.09336853 C10.96119021 38.08775866 14.29307195 38.07520447 17.625 38.0625 C19.88020736 38.05748627 22.13541578 38.05292314 24.390625 38.04882812 C29.92710614 38.03778603 35.46354832 38.02103827 41 38 C43.01486569 34.12479873 43.01486569 34.12479873 44 30 C32.45 30 20.9 30 9 30 Z " fill="#000000" transform="translate(15,12)"/>
</svg>
