<?xml version="1.0" encoding="iso-8859-1"?>
<!-- Uploaded to: SVG Repo, www.svgrepo.com, Generator: SVG Repo Mixer Tools -->
<!DOCTYPE svg PUBLIC "-//W3C//DTD SVG 1.1//EN" "http://www.w3.org/Graphics/SVG/1.1/DTD/svg11.dtd">
<svg fill="#000000" height="800px" width="800px" version="1.1" id="Capa_1" xmlns="http://www.w3.org/2000/svg" xmlns:xlink="http://www.w3.org/1999/xlink" 
	 viewBox="0 0 297 297" xml:space="preserve">
<g>
	<path d="M140.686,231.823c2.597,0,5.136-1.058,6.982-2.895c1.836-1.836,2.893-4.384,2.893-6.981c0-2.597-1.057-5.145-2.893-6.981
		c-1.847-1.837-4.386-2.894-6.982-2.894c-2.606,0-5.146,1.057-6.982,2.894c-1.847,1.837-2.902,4.385-2.902,6.981
		c0,2.598,1.056,5.146,2.902,6.981C135.54,230.766,138.079,231.823,140.686,231.823z"/>
	<path d="M156.98,228.367c-2.607,0-5.145,1.056-6.991,2.893c-1.837,1.837-2.894,4.385-2.894,6.982c0,2.597,1.057,5.145,2.894,6.98
		c1.847,1.838,4.385,2.895,6.991,2.895c2.598,0,5.145-1.057,6.982-2.895c1.836-1.836,2.894-4.384,2.894-6.98
		c0-2.598-1.058-5.146-2.894-6.982C162.125,229.423,159.577,228.367,156.98,228.367z"/>
	<path d="M134.751,236.761c-2.598,0-5.136,1.056-6.973,2.894c-1.847,1.837-2.893,4.385-2.893,6.981c0,2.598,1.047,5.146,2.893,6.982
		c1.837,1.837,4.385,2.894,6.973,2.894c2.606,0,5.144-1.058,6.991-2.894c1.837-1.836,2.893-4.384,2.893-6.982
		c0-2.597-1.057-5.145-2.893-6.981C139.905,237.816,137.357,236.761,134.751,236.761z"/>
	<path d="M182.816,153.043V83.4c9.531-3.755,16.295-13.053,16.295-23.901v-0.987c0-10.848-6.765-20.139-16.295-23.895V9.875
		c0-5.453-4.421-9.875-9.875-9.875h-48.883c-5.454,0-9.875,4.422-9.875,9.875v24.742c-9.53,3.756-16.295,13.047-16.295,23.895v0.987
		c0,10.849,6.764,20.146,16.295,23.901v69.643c-19.747,9.831-32.589,30.165-32.589,52.61v81.472c0,5.453,4.422,9.875,9.875,9.875
		H205.53c5.453,0,9.875-4.422,9.875-9.875v-81.472C215.405,183.208,202.564,162.874,182.816,153.043z M133.934,19.751h29.133v12.838
		h-29.133V19.751z M195.654,277.25h-94.309v-71.597c0-16.499,10.45-31.28,26.004-36.779c3.946-1.394,6.584-5.126,6.584-9.31V75.299
		c0-5.453-4.421-9.875-9.875-9.875h-0.494c-3.211,0-5.925-2.714-5.925-5.925v-0.987c0-3.212,2.714-5.926,5.925-5.926h49.871
		c3.211,0,5.925,2.714,5.925,5.926v0.987c0,3.211-2.714,5.925-5.925,5.925h-0.494c-5.454,0-9.875,4.422-9.875,9.875v84.265
		c0,4.184,2.638,7.916,6.583,9.31c15.554,5.499,26.005,20.28,26.005,36.779V277.25z"/>
	<path d="M153.485,185.868c-1.93,1.928-1.93,5.055,0,6.982c12.316,12.317,1.293,24.286-0.015,25.62
		c-1.915,1.93-1.91,5.045,0.015,6.968c0.963,0.965,2.228,1.447,3.49,1.447c1.264,0,2.528-0.482,3.491-1.447
		c0.502-0.5,4.966-5.1,7.304-12.113c2.299-6.895,2.898-17.257-7.304-27.457C158.54,183.939,155.412,183.939,153.485,185.868z"/>
</g>
</svg>